<svg width="16" height="16" viewBox="0 0 16 16" fill="none" xmlns="http://www.w3.org/2000/svg">
<path d="M3.5 13.5C3.5 14.0523 3.05228 14.5 2.5 14.5C1.94772 14.5 1.5 14.0523 1.5 13.5V3.5C1.5 2.39543 2.39543 1.5 3.5 1.5V13.5Z" fill="#D9D9D9" stroke="#38404D"/>
<path d="M12 1.5C12.2761 1.5 12.5 1.72386 12.5 2V13.5C12.5 14.0523 12.0523 14.5 11.5 14.5C10.9477 14.5 10.5 14.0523 10.5 13.5V1.5H12Z" fill="#D9D9D9" stroke="#38404D"/>
<path d="M4 1.5H5.5V13.5C5.5 14.0523 5.05228 14.5 4.5 14.5C3.94772 14.5 3.5 14.0523 3.5 13.5V2C3.5 1.72386 3.72386 1.5 4 1.5Z" fill="#D9D9D9" stroke="#38404D"/>
<path d="M12.5 1.5C13.6046 1.5 14.5 2.39543 14.5 3.5V13.5C14.5 14.0523 14.0523 14.5 13.5 14.5C12.9477 14.5 12.5 14.0523 12.5 13.5V1.5Z" fill="#D9D9D9" stroke="#38404D"/>
<mask id="path-5-inside-1_11833_114238" fill="white">
<path d="M6 1H10V13H6V1Z"/>
</mask>
<path d="M6 1H10V13H6V1Z" fill="#24AAD7"/>
<path d="M6 1V2H10V1V0H6V1ZM10 13V12H6V13V14H10V13Z" fill="#38404D" mask="url(#path-5-inside-1_11833_114238)"/>
<line x1="6" y1="7.5" x2="11" y2="7.5" stroke="#38404D"/>
<line x1="2" y1="2.5" x2="14" y2="2.5" stroke="#38404D"/>
</svg>
