<svg width="16" height="16" viewBox="0 0 16 16" fill="none" xmlns="http://www.w3.org/2000/svg">
<g clip-path="url(#clip0_11346_107508)">
<path d="M14.99 6.45996V9.83996C14.99 10.37 14.52 10.85 13.92 10.85H2.01C1.48 10.85 1 10.38 1 9.83996V6.45996H14.99Z" fill="#CCCCCC"/>
<path d="M3.14 7.6999H3.79V8.4099H3.14V7.6999ZM12.33 9.2999C12.51 9.2999 12.69 9.2399 12.8 9.1199C12.92 8.9399 13.04 8.7599 13.04 8.5899C13.04 8.4199 12.92 8.2299 12.8 8.0599C12.68 7.9399 12.5 7.8799 12.33 7.8799C12.09 7.8799 11.92 7.9399 11.8 8.0599C11.68 8.2399 11.56 8.4199 11.56 8.5899C11.56 8.7599 11.68 8.9499 11.8 9.1199C11.92 9.2399 12.1 9.2999 12.33 9.2999ZM13.16 9.4199C12.92 9.5999 12.63 9.7799 12.33 9.7799C11.97 9.7799 11.68 9.5999 11.5 9.4199C11.26 9.1799 11.14 8.8899 11.14 8.5899C11.14 8.2299 11.26 7.9999 11.5 7.7599C11.68 7.5199 11.97 7.3999 12.33 7.3999C12.63 7.3999 12.92 7.5199 13.16 7.7599C13.34 7.9999 13.46 8.2299 13.46 8.5899C13.46 8.8899 13.34 9.1799 13.16 9.4199ZM2.25 10.8399H4.98V11.7899H2.25V10.8399ZM11.02 10.8399H13.75V11.7899H11.02V10.8399ZM6.52 8.7699H7.23V9.4799H6.52V8.7699ZM5.39 8.7699H6.1V9.4799H5.39V8.7699ZM4.27 8.7699H4.92V9.4799H4.27V8.7699ZM3.14 8.7699H3.79V9.4799H3.14V8.7699ZM6.52 7.6999H7.23V8.4099H6.52V7.6999ZM5.39 7.6999H6.1V8.4099H5.39V7.6999ZM4.27 7.6999H4.92V8.4099H4.27V7.6999Z" fill="#38404D"/>
<path d="M0.950195 6.45996L2.5502 4.20996H13.4502L14.9902 6.45996H0.950195Z" fill="#CCCCCC"/>
<path d="M0.650215 6.09992L2.13021 3.90992C2.25021 3.78992 2.37021 3.66992 2.54021 3.66992H13.4402C13.6202 3.66992 13.7402 3.78992 13.8502 3.96992L15.3302 6.09992C15.4502 6.27992 15.5102 6.45992 15.5102 6.62992V9.82992C15.5102 10.2399 15.2702 10.5999 15.0402 10.8999C14.7402 11.1399 14.3302 11.3099 13.9102 11.3099H2.01021C1.60021 11.3099 1.24021 11.1299 0.940215 10.8999C0.640215 10.5999 0.470215 10.2499 0.470215 9.82992V6.62992C0.470215 6.44992 0.530215 6.21992 0.650215 6.09992ZM14.5202 6.98992H1.48021V9.82992C1.48021 9.94992 1.54021 10.0699 1.66021 10.1899C1.72021 10.2499 1.90021 10.3099 2.02021 10.3099H13.9302C14.1102 10.3099 14.2302 10.2499 14.3402 10.1899C14.4602 10.0699 14.5202 9.94992 14.5202 9.82992V6.98992ZM1.96021 5.92992H14.0502L13.1602 4.68992H2.79021L1.96021 5.92992Z" fill="#38404D"/>
</g>
<defs>
<clipPath id="clip0_11346_107508">
<rect width="16" height="16" fill="white"/>
</clipPath>
</defs>
</svg>
