<svg width="32" height="32" viewBox="0 0 32 32" fill="none" xmlns="http://www.w3.org/2000/svg">
<g clip-path="url(#clip0_11882_115492)">
<path fill-rule="evenodd" clip-rule="evenodd" d="M16.0592 6.271L5.66016 12.9962V24.9209C5.66016 25.5031 6.14196 26.1054 6.72415 26.1054H25.615C26.1972 26.1054 26.679 25.5232 26.679 24.9209L26.5585 12.9962L16.0391 6.271H16.0592Z" fill="white"/>
<path fill-rule="evenodd" clip-rule="evenodd" d="M12.165 25.9851H19.2516V18.1959C19.2516 16.4293 18.0672 15.0039 16.3005 15.0039H15.2366C13.4699 14.8835 12.165 16.4293 12.165 18.1959V25.9851Z" fill="#FFBF36"/>
<path fill-rule="evenodd" clip-rule="evenodd" d="M29.5302 11.1093L17.0032 2.25612C16.5214 2.01521 15.4775 2.01521 14.9957 2.25612L10.9806 5.20718V2.8383H6.72464V8.0378L2.46868 11.1093C1.98687 11.4707 1.88649 12.1733 2.22777 12.7555L3.05086 13.9399C3.41221 14.4217 4.11485 14.5221 4.69703 14.1808L16.0396 6.27117L27.2617 14.1808C27.8438 14.5422 28.5665 14.4217 28.9078 13.9399L29.7309 12.7555C30.0923 12.1733 29.9718 11.4506 29.49 11.1093H29.5302Z" fill="#D9982C"/>
<path d="M13.1085 25.0415H18.1875V18.1958C18.1875 17.6136 18.0671 17.0114 17.7057 16.6701L17.5853 16.5496C17.2239 16.1883 16.7622 16.0678 16.1599 15.9674H15.0959C14.5137 15.9674 14.0319 16.2084 13.791 16.5496C13.3092 17.0314 13.2088 17.4932 13.0884 18.0754V18.1958V25.0415H13.1085ZM10.86 6.51199H10.6191C10.2578 6.51199 10.0369 6.27109 10.0369 5.92981V3.80183H7.78851V8.05779C7.78851 8.41914 7.54761 8.76042 7.30671 9.00133L3.05074 11.9524V12.0728V12.1933L3.75338 13.2573L3.87383 13.3777L3.99428 13.4982H4.11474L4.23519 13.3777C7.88889 10.788 11.6831 8.17824 15.4573 5.46808H15.5777L15.6982 5.34762H16.4008V5.46808H16.5213C20.2954 8.17824 24.0696 10.788 27.8638 13.3777C27.8638 13.4982 27.9842 13.4982 27.9842 13.4982C28.1047 13.4982 28.1047 13.3777 28.1047 13.3777L28.9278 12.1933C29.0482 12.1933 29.0482 12.0728 29.0482 12.0728C29.0482 11.9524 28.9278 11.9524 28.9278 11.9524L16.4008 3.09919C16.1599 2.97874 15.919 2.97874 15.5777 3.09919L10.9805 6.41161L10.86 6.53207V6.51199ZM6.60407 14.0603L6.72452 24.921V25.0415H11.1009V18.1958H11.2214V18.0754C11.2214 17.0114 11.5827 15.9474 12.2854 15.2447C12.988 14.4217 13.9316 13.9398 15.116 13.9398H15.2364L16.3004 14.0603C17.3644 14.0603 18.4284 14.5421 19.0106 15.2447H19.131C19.8337 16.0678 20.195 17.0114 20.195 18.1958V25.0415H25.6354V24.921H25.7559L25.6354 14.3012L24.9328 13.8194L16.0796 7.55591L6.62415 14.0603H6.60407ZM27.6229 15.3652V24.921C27.6229 25.5032 27.382 26.1055 27.0407 26.4467C26.6794 26.8081 26.2176 27.0289 25.7358 27.0289H6.72452C6.14234 27.0289 5.66053 26.788 5.29918 26.4467C4.93782 26.0854 4.71699 25.5032 4.71699 25.0214V24.9009L4.59654 15.3451C4.35564 15.4656 4.01436 15.4656 3.77346 15.3451H3.653C3.1712 15.3451 2.58901 14.9838 2.22766 14.522L1.40457 13.3376V13.2171C1.04322 12.8558 0.922765 12.2736 1.04322 11.7918V11.6713C1.16367 11.0892 1.40457 10.6073 1.8663 10.246L5.76091 7.53583V2.81814C5.76091 2.23596 6.24271 1.75415 6.70445 1.75415H10.9604C11.5426 1.75415 12.0244 2.23596 12.0244 2.81814V3.17949L14.5137 1.53332C14.8751 1.17197 15.4573 1.05151 16.0395 1.05151C16.5213 1.05151 17.1034 1.17197 17.5652 1.53332L30.0922 10.2661C30.574 10.6274 30.7948 11.0892 30.9152 11.6914C31.0357 12.1732 30.9152 12.7554 30.5539 13.2171L29.8512 14.4016C29.7709 14.4819 29.6906 14.5622 29.6103 14.6425C29.3694 15.0038 28.9077 15.2247 28.4259 15.3451H28.3055C28.0646 15.4656 27.8236 15.4656 27.6028 15.3451L27.6229 15.3652Z" fill="#38404D"/>
</g>
<defs>
<clipPath id="clip0_11882_115492">
<rect width="32" height="32" fill="white"/>
</clipPath>
</defs>
</svg>
