<svg width="16" height="16" viewBox="0 0 16 16" fill="none" xmlns="http://www.w3.org/2000/svg">
<g clip-path="url(#clip0_11293_102293)">
<path fill-rule="evenodd" clip-rule="evenodd" d="M10.5104 7.97001L13.9904 4.43001L11.6304 2.01001L8.09035 5.55001L2.36035 11.28L4.78035 13.7L10.5104 7.97001Z" fill="#24AAD7"/>
<path fill-rule="evenodd" clip-rule="evenodd" d="M11.51 14.29L1.59 4.37001L1 3.72001L1.59 3.13001L2.3 2.42001L3.01 1.71001C3.36 1.36001 3.9 1.36001 4.25 1.71001L14.17 11.63C14.52 11.98 14.52 12.52 14.17 12.87L13.46 13.58L12.75 14.29L12.16 14.88L11.51 14.29Z" fill="#FFBF36"/>
<path fill-rule="evenodd" clip-rule="evenodd" d="M12.0404 12.9899C11.8004 12.7499 11.8004 12.3999 12.0404 12.1599C12.2204 11.9799 12.5704 11.9799 12.8104 12.1599C13.0504 12.3999 13.0504 12.7499 12.8104 12.9899C12.5704 13.2299 12.2204 13.2299 12.0404 12.9899Z" fill="#FFBF36"/>
<path d="M11.1597 14.6401L8.97973 12.4601L7.85973 11.3401L5.13973 14.0601L5.07973 14.1201H5.01973C4.95973 14.1801 4.89973 14.1801 4.83973 14.1801L1.88973 14.7101H1.70973C1.40973 14.6501 1.23973 14.4101 1.29973 14.1201L1.82973 11.2301C1.88973 11.1101 1.88973 10.9901 2.00973 10.9301L4.72973 8.21008L3.48973 6.91008H3.42973L2.12973 5.55008H2.06973V5.49008L1.23973 4.72008L0.649727 4.07008C0.409727 3.89008 0.409727 3.60008 0.649727 3.36008L1.23973 2.77008L1.29973 2.71008L1.94973 2.06008L2.65973 1.35008C2.89973 1.11008 3.24973 0.940078 3.59973 0.940078C3.94973 0.940078 4.30973 1.12008 4.59973 1.35008L8.07973 4.83008L11.8597 0.990078C12.2097 0.690078 12.6297 0.580078 12.9797 0.580078C13.3897 0.580078 13.8097 0.700078 14.0997 0.990078L14.9897 1.93008C15.3397 2.23008 15.4597 2.64008 15.4597 2.99008C15.4597 3.40008 15.3397 3.82008 14.9897 4.11008L11.2097 7.95008L14.5197 11.2601C14.7597 11.5601 14.9297 11.9101 14.9297 12.2001C14.9297 12.5501 14.7497 12.9101 14.5197 13.2001H14.4597L13.8097 13.9101L13.0997 14.6201L12.5097 15.2101C12.2697 15.3901 11.9797 15.3901 11.7997 15.2101L11.1497 14.6201L11.1597 14.6401ZM7.13973 10.6301L6.24973 9.69008H6.18973L5.41973 8.92008L3.05973 11.2801L4.76973 12.9901L7.12973 10.6301H7.13973ZM8.79973 5.55008L10.5097 7.26008L13.3397 4.43008L11.6297 2.72008L8.79973 5.55008ZM10.2097 8.44008C10.2097 8.38008 10.1497 8.38008 10.1497 8.32008C10.0897 8.32008 10.0897 8.26008 10.0297 8.20008L7.78973 6.02008C7.78973 5.96008 7.72973 5.96008 7.72973 5.90008C7.66973 5.90008 7.66973 5.84008 7.60973 5.78008L3.88973 2.06008C3.82973 2.00008 3.70973 1.94008 3.58973 1.94008C3.52973 1.94008 3.40973 2.00008 3.34973 2.06008L2.63973 2.77008L1.98973 3.42008L1.92973 3.48008L1.68973 3.72008L1.92973 4.02008L2.39973 4.49008L3.16973 3.72008C3.34973 3.54008 3.63973 3.54008 3.87973 3.72008C4.05973 3.96008 4.05973 4.25008 3.87973 4.43008L3.10973 5.20008L3.81973 5.85008L4.52973 5.14008C4.76973 4.90008 5.05973 4.90008 5.23973 5.14008C5.41973 5.32008 5.41973 5.61008 5.23973 5.85008L4.52973 6.56008L5.17973 7.27008L5.94973 6.50008C6.12973 6.32008 6.41973 6.32008 6.65973 6.50008C6.83973 6.68008 6.83973 7.03008 6.65973 7.21008L5.88973 7.98008L6.53973 8.63008L7.30973 7.86008C7.48973 7.68008 7.83973 7.68008 8.01973 7.86008C8.19973 8.10008 8.19973 8.39008 8.01973 8.57008L7.24973 9.34008L7.95973 9.99008L8.66973 9.28008C8.90973 9.10008 9.19973 9.10008 9.37973 9.28008C9.61973 9.46008 9.61973 9.75008 9.37973 9.99008L8.66973 10.7001L9.31973 11.4101L10.0897 10.6401C10.2697 10.4601 10.5597 10.4601 10.7997 10.6401C10.9797 10.8801 10.9797 11.1701 10.7997 11.3501L10.0297 12.1201L11.8597 13.9501L12.1597 14.1901L12.3997 13.9501L13.1097 13.2401L13.7597 12.5301H13.8197C13.8797 12.4701 13.9397 12.3501 13.9397 12.2301C13.9397 12.1701 13.8797 12.0501 13.8197 11.9901L10.2197 8.45008L10.2097 8.44008ZM13.9897 3.72008L14.2897 3.42008C14.4097 3.30008 14.4697 3.18008 14.4697 3.01008C14.4697 2.89008 14.4097 2.71008 14.2897 2.60008L13.3997 1.71008C13.2797 1.59008 13.1597 1.59008 12.9897 1.59008C12.8697 1.59008 12.6897 1.59008 12.5797 1.71008L12.2797 2.01008L13.9897 3.72008ZM2.65973 12.2801L2.41973 13.5801L3.71973 13.3401L2.65973 12.2801ZM11.8697 12.5801C11.8697 12.7001 11.9297 12.8801 12.0497 12.9901C12.1697 13.0501 12.2897 13.1101 12.3997 13.1101C12.5797 13.1101 12.6997 13.0501 12.8097 12.9901C12.8697 12.8701 12.9297 12.6901 12.9297 12.5801C12.9297 12.4701 12.9297 12.2801 12.8097 12.2301C12.6897 12.1101 12.5697 12.0501 12.3997 12.0501C12.2797 12.0501 12.1597 12.1101 12.0497 12.1701V12.2301C11.9297 12.2901 11.8697 12.4701 11.8697 12.5801Z" fill="#38404D"/>
</g>
<defs>
<clipPath id="clip0_11293_102293">
<rect width="16" height="16" fill="white"/>
</clipPath>
</defs>
</svg>
