<svg width="16" height="16" viewBox="0 0 16 16" fill="none" xmlns="http://www.w3.org/2000/svg">
<g clip-path="url(#clip0_11346_107364)">
<path d="M11.04 1C11.28 1.53 11.39 2.12 11.39 2.77C11.39 3.01 11.39 3.24 11.33 3.48C12.16 4.13 12.63 5.07 12.63 6.31V9.62C12.63 10.51 12.22 11.33 11.63 11.92C11.57 11.98 11.57 12.04 11.51 12.1V13.75C11.51 14.16 11.45 14.58 11.27 14.99" stroke="#38404D" stroke-linecap="round" stroke-linejoin="round"/>
<path fill-rule="evenodd" clip-rule="evenodd" d="M6.0801 4.31004C6.9101 4.31004 7.5601 3.60004 7.5601 2.77004C7.5601 1.94004 6.9101 1.29004 6.0801 1.29004C5.2501 1.29004 4.5401 1.94004 4.5401 2.77004C4.5401 3.60004 5.2501 4.31004 6.0801 4.31004ZM5.4301 14.7H6.7301C7.2001 14.7 7.6701 14.29 7.6701 13.76V10.1H8.2601C8.5601 10.1 8.7301 9.86004 8.7301 9.63004V6.32004C8.7301 5.38004 7.4901 4.90004 6.1901 4.90004H5.8901C4.5901 4.90004 3.3501 5.37004 3.3501 6.32004V9.63004C3.3501 9.87004 3.5901 10.1 3.8201 10.1H4.4701V13.76C4.4701 14.29 4.8801 14.7 5.4101 14.7H5.4301Z" fill="white" stroke="#38404D" stroke-linecap="round" stroke-linejoin="round"/>
<path d="M8.85986 1C9.26986 1.47 9.50986 2.12 9.50986 2.77C9.50986 3.24 9.38986 3.66 9.20986 4.01L9.26986 4.07C10.0999 4.54 10.6899 5.25 10.6899 6.31V9.62C10.6899 10.09 10.4499 10.62 10.1599 10.92C9.97986 11.1 9.80986 11.22 9.56986 11.33V13.75C9.56986 14.22 9.44986 14.64 9.21986 14.99" stroke="#38404D" stroke-linecap="round" stroke-linejoin="round"/>
</g>
<defs>
<clipPath id="clip0_11346_107364">
<rect width="16" height="16" fill="white"/>
</clipPath>
</defs>
</svg>
